<svg width="73" height="73" viewBox="0 0 73 73" fill="none" xmlns="http://www.w3.org/2000/svg">
<g clip-path="url(#clip0_973_20)">
<path d="M41.4138 61.4328C41.3215 61.4328 41.2753 61.4782 41.2753 61.5689V61.7049C41.2753 61.7956 41.3215 61.8409 41.4138 61.8409H59.6897C59.8282 61.8409 59.8974 61.7956 59.8974 61.7049V61.5689C59.8974 61.4782 59.8282 61.4328 59.6897 61.4328H57.5438C56.1131 61.4328 55.0977 61.1835 54.4977 60.6847C53.9438 60.1859 53.4823 59.3699 53.1132 58.2363C50.8056 51.2536 48.6596 44.2708 46.6751 37.2882C44.6905 30.3055 42.7291 23.2775 40.7908 16.2041C40.5139 15.2519 40.5139 14.4585 40.7908 13.8237C41.0677 13.1889 41.7138 12.8715 42.7291 12.8715H46.8828C47.0212 12.8715 47.0904 12.8035 47.0904 12.6674V12.5994C47.0904 12.5087 47.0212 12.4634 46.8828 12.4634H19.1919C19.0072 12.4634 18.915 12.5087 18.915 12.5994V12.6674C18.915 12.8035 19.0072 12.8715 19.1919 12.8715H24.3147C25.2378 12.8715 25.6993 13.2796 25.6993 14.0957C25.6993 14.4585 25.6531 14.8212 25.5607 15.1838C25.4685 15.5012 25.307 15.9773 25.0762 16.6122C24.6609 17.655 24.1532 18.902 23.5532 20.353C22.9994 21.7585 22.4224 23.2095 21.8225 24.7058C21.2225 26.2021 20.6456 27.653 20.0918 29.0586C19.5381 30.4642 19.0534 31.6885 18.6381 32.7313C17.7612 34.9531 16.8613 37.1295 15.9383 39.2605C15.0613 41.3917 14.2767 43.432 13.5845 45.3817C12.8922 47.2862 12.3153 49.0998 11.8538 50.8228C11.4385 52.5005 11.2308 54.0422 11.2308 55.4477C11.2308 57.8509 11.8308 59.5965 13.0307 60.6847C14.2307 61.7729 15.7305 62.317 17.5305 62.317C19.0072 62.317 20.3457 61.9316 21.5456 61.1608C22.7455 60.3446 23.8763 59.3472 24.9378 58.1683C26.0454 56.944 27.0838 55.6517 28.0529 54.2914C29.0683 52.8859 30.1067 51.5936 31.1682 50.4147C32.2296 49.1904 33.3373 48.193 34.4911 47.4222C35.691 46.606 36.9833 46.1979 38.3678 46.1979C40.5831 46.1979 42.2907 46.8327 43.4906 48.1023C44.6905 49.3718 45.5675 50.8228 46.1212 52.4552C46.4905 53.4527 46.7674 54.4048 46.952 55.3116C47.1827 56.2185 47.4135 57.0347 47.6442 57.7602C47.7366 58.1683 47.7596 58.599 47.7134 59.0524C47.7134 59.5059 47.575 59.9138 47.2981 60.2766C47.0674 60.594 46.652 60.8661 46.052 61.0928C45.4982 61.3195 44.7367 61.4328 43.7675 61.4328H41.4138ZM22.9994 33.8195C25.6301 33.8195 27.5453 34.409 28.7452 35.5879C29.9451 36.7215 30.5452 38.5804 30.5452 41.165V48.2384C29.5298 48.9637 28.5376 49.7346 27.5684 50.5507C26.5992 51.3669 25.6531 52.1151 24.7301 52.7952C23.8071 53.4754 22.9071 54.042 22.0303 54.4955C21.1533 54.9036 20.2765 55.1076 19.3995 55.1076C18.1074 55.1076 16.9305 54.7222 15.8689 53.9515C14.8075 53.1353 14.2767 51.7977 14.2767 49.9386C14.2767 48.805 14.4614 47.5129 14.8306 46.0619C15.2459 44.5656 15.7075 43.0693 16.2151 41.573C16.7689 40.0767 17.3228 38.6484 17.8766 37.2882C18.4304 35.928 18.8919 34.7717 19.2611 33.8195H22.9994ZM25.6993 17.3603C26.2531 16 26.9454 15.1159 27.776 14.7079C28.653 14.2998 29.576 14.0731 30.5452 14.0277V25.862C30.5452 28.5371 29.9683 30.4642 28.8145 31.6431C27.6606 32.822 25.7223 33.4114 22.9994 33.4114H19.3995C20.0918 31.6432 20.7842 29.8748 21.4764 28.1064C22.1687 26.2928 22.8147 24.6378 23.4148 23.1414C24.0147 21.6451 24.4993 20.3756 24.8685 19.3327C25.2839 18.2898 25.5607 17.6324 25.6993 17.3603ZM43.0061 41.505C43.0983 41.8224 43.1907 42.2079 43.2829 42.6613C43.3752 43.1146 43.4214 43.5454 43.4214 43.9534C43.4676 44.3615 43.4444 44.7469 43.3522 45.1097C43.306 45.4271 43.1675 45.6538 42.9368 45.7898C42.8445 45.8352 42.683 45.8579 42.4522 45.8579C41.9907 45.8579 41.4369 45.7672 40.7908 45.5858C40.1908 45.3591 39.3601 45.2457 38.2986 45.2457C37.0063 45.2457 35.7602 45.5178 34.5603 46.0619C33.3603 46.5607 32.1604 47.1955 30.9605 47.9663V41.165C30.9605 38.5351 31.5143 36.6534 32.6219 35.5199C33.7758 34.3863 35.7141 33.8195 38.437 33.8195H40.86C41.2291 35.0891 41.5753 36.3814 41.8984 37.6962C42.2676 38.9658 42.6368 40.2354 43.0061 41.505ZM38.437 33.4114C35.8064 33.4114 33.8912 32.7993 32.6912 31.5751C31.5374 30.3509 30.9605 28.4465 30.9605 25.862V14.0277C32.5759 14.0731 33.7758 14.4131 34.5603 15.0479C35.3449 15.6826 35.8987 16.5441 36.2218 17.6324C36.7294 19.3554 37.3756 21.5998 38.1602 24.3657C38.9447 27.1315 39.7985 30.1468 40.7215 33.4114H38.437Z" fill="#212529"/>
</g>
<defs>
<clipPath id="clip0_973_20">
<rect width="73" height="73" fill="white"/>
</clipPath>
</defs>
</svg>
